HIERARCHY
ROOT Hips
{
	OFFSET 0.00000 0.00000 0.00000
	CHANNELS 6 Xposition Yposition Zposition Zrotation Yrotation Xrotation 
	JOINT RightUpLegDummy
	{
		OFFSET 0 0 0
		CHANNELS 3 Zrotation Yrotation Xrotation
		JOINT RightUpLeg
		{
			OFFSET -3.52197 -3.41223 0.04002
			CHANNELS 3 Zrotation Yrotation Xrotation
			JOINT RightLeg
			{
				OFFSET 0.00006 -17.42390 1.60435
				CHANNELS 3 Zrotation Yrotation Xrotation
				JOINT RightFoot
				{
					OFFSET 0.06154 -16.50078 -1.63900
					CHANNELS 3 Zrotation Yrotation Xrotation
					JOINT RightToes
					{
						OFFSET 0.00298 -1.73825 3.34613
						CHANNELS 3 Zrotation Yrotation Xrotation
						End Site
						{
							OFFSET 0.00480 -0.05416 3.85043
						}
					}
				}
			}
		}
	}
	JOINT SpineDummy
	{
		OFFSET 0 0 0
		CHANNELS 3 Zrotation Yrotation Xrotation
		JOINT Spine
		{
			OFFSET 0.00000 4.68130 0.00000
			CHANNELS 3 Zrotation Yrotation Xrotation
			JOINT Spine1
			{
				OFFSET -0.00000 10.10138 0.05002
				CHANNELS 3 Zrotation Yrotation Xrotation
				JOINT HEadDummy
				{
					OFFSET 0 0 0
					CHANNELS 3 Zrotation Yrotation Xrotation
					JOINT Head
					{
						OFFSET -0.00000 3.43865 0.00438
						CHANNELS 3 Zrotation Yrotation Xrotation
						End Site
						{
							OFFSET -0.11417 5.02924 0.98962
						}
					}
				}
				JOINT LeftShoulder1Dummy
				{
					OFFSET 0 0 0
					CHANNELS 3 Zrotation Yrotation Xrotation
					JOINT LeftShoulder1
					{
						OFFSET 3.53937 -0.14262 -0.08662
						CHANNELS 3 Zrotation Yrotation Xrotation
						JOINT LeftArm
						{
							OFFSET 4.04833 -0.00133 0.12681
							CHANNELS 3 Zrotation Yrotation Xrotation
							JOINT LeftForeArm
							{
								OFFSET 10.33880 -0.01036 -0.55515
								CHANNELS 3 Zrotation Yrotation Xrotation
								JOINT LeftHand
								{
									OFFSET 8.69677 0.07543 0.40060
									CHANNELS 3 Zrotation Yrotation Xrotation
									End Site
									{
										OFFSET 5.28377 -0.21905 0.59205
									}
								}
							}
						}
					}
				}
				JOINT RightShoulderDummy
				{
					OFFSET 0 0 0
					CHANNELS 3 Zrotation Yrotation Xrotation
					JOINT RightShoulder
					{
						OFFSET -3.53937 -0.14262 -0.08660
						CHANNELS 3 Zrotation Yrotation Xrotation
						JOINT RightArm
						{
							OFFSET -4.04833 -0.00133 0.12683
							CHANNELS 3 Zrotation Yrotation Xrotation
							JOINT RightForeArm
							{
								OFFSET -10.37987 -0.01039 -0.55511
								CHANNELS 3 Zrotation Yrotation Xrotation
								JOINT RightHand
								{
									OFFSET -8.67398 0.07538 0.40058
									CHANNELS 3 Zrotation Yrotation Xrotation
									End Site
									{
										OFFSET -5.24810 -0.21916 0.59204
									}
								}
							}
						}
					}
				}
			}
		}
	}
	JOINT LeftUpLegDummy
	{
		OFFSET 0 0 0
		CHANNELS 3 Zrotation Yrotation Xrotation
		JOINT LeftUpLeg
		{
			OFFSET 3.52197 -3.41223 0.04002
			CHANNELS 3 Zrotation Yrotation Xrotation
			JOINT LeftLeg
			{
				OFFSET -0.00012 -17.42399 1.60337
				CHANNELS 3 Zrotation Yrotation Xrotation
				JOINT LeftFoot
				{
					OFFSET -0.09972 -16.50070 -1.63802
					CHANNELS 3 Zrotation Yrotation Xrotation
					JOINT LeftToes
					{
						OFFSET -0.01575 -1.73823 3.34611
						CHANNELS 3 Zrotation Yrotation Xrotation
						End Site
						{
							OFFSET 0.03150 -0.01868 3.85031
						}
					}
				}
			}
		}
	}
}
MOTION
Frames: 6
Frame Time: 0.033333
-5.9244 37.7519 3.7465 177.8670 44.7941 -179.3730 0.0000 0.0000 0.0000 -12.7854 -3.4924 -17.8636 -2.5217 -2.5534 36.0795 20.1580 -0.2367 -10.2260 -0.0000 -0.0000 0.0000 0.0000 0.0000 0.0000 -5.6595 0.7777 12.7603 -1.2319 0.5619 23.0265 0.0000 0.0000 0.0000 -18.0492 34.3606 -20.8408 0.0000 0.0000 0.0000 -14.1220 -2.2420 1.2094 -53.7959 -17.7247 21.9249 -0.0155 -84.8001 9.5605 23.0577 -4.3132 -1.9125 0.0000 0.0000 0.0000 10.1775 0.2126 0.6499 61.1715 17.1542 24.5098 179.6310 63.9092 -174.6824 -11.7021 4.6661 -0.9774 0.0000 0.0000 0.0000 1.5679 -0.7968 -19.9071 1.5187 1.2959 35.1661 -6.2246 -0.1576 -15.9987 0.0000 0.0000 -0.0000
-6.1329 37.7167 3.6669 177.6080 45.2596 -179.7570 0.0000 0.0000 0.0000 -13.3290 -3.3782 -18.3761 -2.6159 -2.5988 36.7478 20.3913 -0.4063 -9.2751 -0.0000 -0.0000 0.0000 0.0000 0.0000 0.0000 -5.8682 1.0716 12.4242 -1.4480 0.9506 23.7594 0.0000 0.0000 0.0000 -18.1119 34.4311 -20.1061 0.0000 0.0000 0.0000 -13.8099 -2.1303 1.1699 -51.9500 -19.9885 19.6270 -0.2122 -84.1255 9.3323 24.4666 -4.0051 -1.9715 0.0000 0.0000 0.0000 10.4048 0.1897 0.6535 61.9615 17.1252 24.8744 179.7453 64.2470 -173.4750 -11.6357 4.7686 -0.9811 0.0000 0.0000 0.0000 0.9768 -0.5181 -19.8629 1.7060 1.5020 35.3396 -5.8598 -0.1531 -16.2246 0.0000 0.0000 -0.0000
-6.2935 37.8561 3.6370 177.5540 44.9949 -179.6130 0.0000 0.0000 0.0000 -13.5854 -3.6347 -18.2704 -2.3530 -2.3913 35.7626 20.6154 -0.5256 -8.6294 -0.0000 -0.0000 0.0000 0.0000 0.0000 0.0000 -5.8506 1.1441 12.3491 -1.3151 0.9888 23.6832 0.0000 0.0000 0.0000 -18.0259 34.5338 -19.4976 0.0000 0.0000 0.0000 -13.3542 -1.7779 1.0749 -51.1605 -21.3068 17.5263 -0.5207 -84.2085 9.0118 25.7700 -3.8768 -2.0536 0.0000 0.0000 0.0000 10.7442 0.1435 0.6565 62.3789 16.0480 25.5123 179.8207 64.1950 -172.7073 -11.4566 4.8725 -0.9748 0.0000 0.0000 0.0000 0.7308 -0.9058 -19.6726 1.8416 1.7373 34.1209 -5.8201 -0.1128 -15.3757 0.0000 0.0000 -0.0000
-6.4072 38.1194 3.6609 178.0120 44.2594 -178.7670 0.0000 0.0000 0.0000 -13.3151 -4.1586 -17.8445 -1.9785 -2.1278 33.6778 20.9939 -0.5633 -8.4725 -0.0000 -0.0000 0.0000 0.0000 0.0000 0.0000 -5.4496 0.9940 12.1731 -0.9893 0.7677 23.3451 0.0000 0.0000 0.0000 -17.8840 34.5887 -19.1528 0.0000 0.0000 0.0000 -12.8874 -1.4521 0.9875 -51.0464 -21.7196 15.5681 -1.3438 -85.0590 8.4950 26.9925 -3.8172 -2.1422 0.0000 0.0000 0.0000 10.8638 0.1907 0.6689 62.5544 14.4770 26.2350 179.8454 63.9471 -172.4645 -11.2655 4.9088 -0.9609 0.0000 0.0000 0.0000 1.0360 -1.5900 -19.4332 1.7090 1.7199 31.9055 -5.9560 -0.0513 -13.9289 0.0000 0.0000 -0.0000
-6.4637 38.4453 3.7244 178.7410 43.6517 -177.4510 0.0000 0.0000 0.0000 -12.6667 -4.5376 -17.4235 -2.0503 -2.4587 30.9643 21.3106 -0.6478 -8.0583 -0.0000 -0.0000 0.0000 0.0000 0.0000 0.0000 -4.9687 0.8216 11.6516 -0.6685 0.5478 22.9220 0.0000 0.0000 0.0000 -17.7270 34.6500 -18.8174 0.0000 0.0000 0.0000 -12.6532 -1.0962 0.9070 -51.2249 -21.3505 13.9531 -2.9190 -86.3236 8.4941 27.8788 -3.6948 -2.1871 0.0000 0.0000 0.0000 10.7199 0.3157 0.6866 62.4681 12.8869 27.0085 179.8712 63.6791 -172.2197 -10.9330 4.9029 -0.9307 0.0000 0.0000 0.0000 1.6796 -2.0575 -19.1178 1.4316 1.5322 28.9867 -6.0536 0.0222 -12.3155 0.0000 0.0000 -0.0000
-6.4714 38.7614 3.8126 179.1140 43.1550 -176.3540 0.0000 0.0000 0.0000 -12.2182 -4.7159 -16.8592 -2.3267 -3.1756 27.8703 21.9029 -0.8854 -6.9067 -0.0000 -0.0000 0.0000 0.0000 0.0000 0.0000 -4.8568 0.6838 11.2256 -0.3550 0.3149 22.1235 0.0000 0.0000 0.0000 -17.4466 34.7113 -18.2700 0.0000 0.0000 0.0000 -12.5087 -0.6384 0.8115 -51.6456 -20.3795 12.9629 -5.2590 -87.5714 10.0293 28.0586 -3.5877 -2.1765 0.0000 0.0000 0.0000 10.5329 0.3862 0.6927 62.0860 11.4194 27.7999 179.9174 63.3386 -171.7491 -10.4372 4.8813 -0.8845 0.0000 0.0000 0.0000 2.1829 -2.6489 -18.5864 1.3112 1.5659 25.6565 -6.2928 0.1006 -10.6821 0.0000 0.0000 -0.0000
